<svg width="16" height="16" viewBox="0 0 16 16" fill="none" xmlns="http://www.w3.org/2000/svg">
<g clip-path="url(#clip0_2319_7868)">
<path d="M11 10.2919L14.7929 6.49905L11 2.70616V4.49905C11 4.77519 10.7761 4.99905 10.5 4.99905H7.5C7.22386 4.99905 7 4.77519 7 4.49905C7 4.22291 7.22386 3.99905 7.5 3.99905H10V1.49905C10 1.0536 10.5386 0.830513 10.8536 1.1455L15.8536 6.1455C16.0488 6.34076 16.0488 6.65734 15.8536 6.8526L10.8536 11.8526C10.7631 11.9431 10.6381 11.999 10.5 11.999C10.2239 11.999 10 11.7752 10 11.499V7.99905H5.5C5.22386 7.99905 5 7.77519 5 7.49905V5.70616L1.20711 9.49905L5 13.2919V11.499C5 11.2229 5.22386 10.999 5.5 10.999H8.5C8.77614 10.999 9 11.2229 9 11.499C9 11.7752 8.77614 11.999 8.5 11.999H6V14.499C6 14.9445 5.46143 15.1676 5.14645 14.8526L0.146447 9.8526C-0.0488155 9.65734 -0.0488155 9.34076 0.146447 9.1455L5.14645 4.1455C5.46143 3.83051 6 4.0536 6 4.49905V6.99905H10.5C10.7761 6.99905 11 7.22291 11 7.49905V10.2919Z" fill="#333333"/>
</g>
<defs>
<clipPath id="clip0_2319_7868">
<rect width="16" height="16" fill="white"/>
</clipPath>
</defs>
</svg>
