<svg width="17" height="16" viewBox="0 0 17 16" fill="none" xmlns="http://www.w3.org/2000/svg">
<g clip-path="url(#clip0_2319_7872)">
<path d="M15 0C15.8284 0 16.5 0.671573 16.5 1.5V14.5C16.5 15.3284 15.8284 16 15 16H2C1.17157 16 0.5 15.3284 0.5 14.5V1.5C0.5 0.671573 1.17157 0 2 0H15ZM15 1H2C1.72386 1 1.5 1.22386 1.5 1.5V3H15.5V4H1.5V14.5C1.5 14.7761 1.72386 15 2 15H15C15.2761 15 15.5 14.7761 15.5 14.5V1.5C15.5 1.22386 15.2761 1 15 1ZM13 11C13.2761 11 13.5 11.2239 13.5 11.5C13.5 11.7761 13.2761 12 13 12H6C5.72386 12 5.5 11.7761 5.5 11.5C5.5 11.2239 5.72386 11 6 11H13ZM4 11C4.27614 11 4.5 11.2239 4.5 11.5C4.5 11.7761 4.27614 12 4 12C3.72386 12 3.5 11.7761 3.5 11.5C3.5 11.2239 3.72386 11 4 11ZM13 7C13.2761 7 13.5 7.22386 13.5 7.5C13.5 7.77614 13.2761 8 13 8H6C5.72386 8 5.5 7.77614 5.5 7.5C5.5 7.22386 5.72386 7 6 7H13ZM4 7C4.27614 7 4.5 7.22386 4.5 7.5C4.5 7.77614 4.27614 8 4 8C3.72386 8 3.5 7.77614 3.5 7.5C3.5 7.22386 3.72386 7 4 7Z" fill="#333333"/>
</g>
<defs>
<clipPath id="clip0_2319_7872">
<rect width="16" height="16" fill="white" transform="translate(0.5)"/>
</clipPath>
</defs>
</svg>
