<svg width="16" height="16" viewBox="0 0 16 16" fill="none" xmlns="http://www.w3.org/2000/svg">
<g clip-path="url(#clip0_2823_457)">
<path id="ic-warning" d="M7.03078 0.59925C7.42878 -0.19975 8.56978 -0.19975 8.96778 0.59925L12.3338 7.33025L15.8838 14.4323C16.2438 15.1523 15.7198 16.0002 14.9148 16.0002H7.99978H1.08478C0.278777 16.0002 -0.244223 15.1523 0.115777 14.4323L3.66578 7.33025L7.03078 0.59925ZM7.99958 11.0001C8.37417 11.0001 8.68632 10.7096 8.71186 10.335L8.99186 6.24044C9.06564 5.58215 8.60119 5.00015 7.99958 5.00015C7.39797 5.00015 6.93352 5.58215 7.0073 6.24044L7.28729 10.335C7.31283 10.7096 7.62499 11.0001 7.99958 11.0001ZM8.99958 13.0117V12.9886C8.99958 12.43 8.57534 12.0001 7.99914 12.0001C7.4247 12.0001 6.99958 12.4309 6.99958 12.9886V13.0117C6.99958 13.5694 7.4247 14.0001 7.99914 14.0001C8.57534 14.0001 8.99958 13.5685 8.99958 13.0117Z" fill="#333333"/>
</g>
<defs>
<clipPath id="clip0_2823_457">
<rect width="16" height="16" fill="white"/>
</clipPath>
</defs>
</svg>
