<svg width="64" height="40" xmlns="http://www.w3.org/2000/svg" fill="none"><path fill="#283991" d="M16 20c0-8.837 7.163-16 16-16s16 7.163 16 16-7.163 16-16 16-16-7.163-16-16z"/><path fill="#F8D12E" d="m32.363 7.976-.39-1.201-.39 1.2h-1.264l1.022.743-.39 1.201 1.022-.743 1.021.743-.39-1.2 1.022-.743h-1.263zM32.363 30.65l-.39-1.202-.39 1.201h-1.264l1.022.742-.39 1.202 1.022-.743 1.021.742-.39-1.2 1.022-.743h-1.263zM38.195 8.784l.39 1.202h1.263l-1.022.742.39 1.201-1.021-.742-1.022.742.39-1.2-1.021-.743h1.263l.39-1.202zM42.83 14.174l-.39-1.201-.39 1.201h-1.263l1.022.743-.39 1.2 1.022-.742 1.021.743-.39-1.201 1.022-.743H42.83zM42.542 23.556l.39 1.201h1.263l-1.022.743.39 1.2-1.021-.742-1.022.742.39-1.2-1.022-.743h1.263l.39-1.201zM22.048 14.174l-.39-1.201-.39 1.201h-1.263l1.022.743-.39 1.2 1.021-.742 1.022.743-.39-1.201 1.021-.743h-1.263zM43.425 18.02l.39 1.201h1.263l-1.022.742.39 1.202-1.021-.742-1.022.742.39-1.202-1.022-.742h1.263l.39-1.2zM21.083 19.221l-.39-1.2-.39 1.2H19.04l1.022.742-.39 1.202 1.021-.742 1.022.742-.39-1.202 1.021-.742h-1.263zM21.521 23.556l.39 1.201h1.263l-1.021.743.39 1.2-1.022-.742-1.022.742.39-1.2-1.021-.743h1.263l.39-1.201zM38.768 29.124l-.39-1.2-.39 1.2h-1.263l1.022.743-.39 1.2 1.021-.741 1.022.742-.39-1.201 1.021-.743h-1.263zM25.952 8.784l.39 1.202h1.263l-1.022.742.39 1.201-1.021-.742-1.022.742.39-1.2-1.022-.743h1.263l.39-1.202zM25.881 29.048l-.39-1.202-.39 1.202h-1.264l1.022.742-.39 1.2 1.022-.74 1.022.74-.39-1.2 1.021-.742h-1.263z"/></svg>