<svg width="64" height="40" xmlns="http://www.w3.org/2000/svg" fill="none"><path fill="#fff" d="M16 20c0-8.837 7.163-16 16-16s16 7.163 16 16-7.163 16-16 16-16-7.163-16-16z"/><path fill="#F44336" d="M31.323 4a15.92 15.92 0 0 0-8.297 2.903H41.49A15.922 15.922 0 0 0 33.194 4H31.323zM19.898 9.806A15.972 15.972 0 0 0 18 12.709H46.517a15.957 15.957 0 0 0-1.898-2.903H19.898zm-3.832 8.738c.087-.997.267-1.967.53-2.903h30.786c.263.936.443 1.906.53 2.903H16.066zm.006 2.904c.093.997.28 1.967.547 2.902h30.74c.268-.935.455-1.905.547-2.902H16.072zm3.624 8.708a15.982 15.982 0 0 1-1.924-2.903H46.206a15.978 15.978 0 0 1-1.924 2.903H19.696zm11.617 5.789.048.002.049.002a15.751 15.751 0 0 0 9.697-2.889H22.871a15.75 15.75 0 0 0 8.44 2.885z" clip-rule="evenodd" fill-rule="evenodd"/><path fill="#283991" d="M31.659 4.008c-8.194.167-14.872 6.493-15.59 14.54h15.59V4.008z"/><path fill="#EFEFEF" d="m19.2 13.04.243.748h.79l-.64.463.245.75-.639-.464-.638.463.244-.749-.638-.463h.789l.243-.748zM19.2 15.684l.243.75h.79l-.64.462.245.749-.639-.463-.638.463.244-.749-.638-.463h.789l.243-.749zM21.85 9.073l.243.748h.79l-.639.463.244.749-.638-.463-.639.463.244-.749-.638-.463h.789l.244-.748zM21.85 11.717l.243.75h.79l-.639.462.244.749-.638-.463-.639.463.244-.75-.638-.462h.789l.244-.749zM21.85 14.362l.243.75h.79l-.639.461.244.75-.638-.464-.639.463.244-.749-.638-.462h.789l.244-.749zM17.187 16.322l-.244-.749.639-.462h-.79l-.017-.055c-.086.267-.165.538-.237.812l.011-.009.638.463zM18.561 12.355l.638-.463.639.463-.244-.749.638-.463h-.79l-.243-.748-.244.748h-.29a15.1 15.1 0 0 0-.16.247l.3.216-.244.75zM21.85 7.926l.638.462-.244-.748.638-.463h-.456c-.387.288-.76.594-1.119.916l-.096.295.639-.462zM23.862 7.066l.638-.463.638.463-.244-.749.638-.463h-.789l-.033-.1c-.267.136-.532.278-.79.429l.185.134-.243.749zM24.5 7.75l.244.749h.789l-.639.463.244.749-.638-.463-.638.463.243-.75-.638-.462h.79l.243-.749zM24.5 10.395l.244.748h.789l-.639.463.244.75-.638-.464-.638.464.243-.75-.638-.463h.79l.243-.748zM24.5 13.04l.244.748h.789l-.639.463.244.75-.638-.464-.638.463.243-.749-.638-.463h.79l.243-.748zM24.5 15.684l.244.75h.789l-.639.462.244.749-.638-.463-.638.463.243-.749-.638-.463h.79l.243-.749zM27.15 6.428l.244.749h.789l-.638.463.243.748-.638-.462-.638.462.244-.748-.639-.463h.79l.243-.75zM27.15 9.073l.244.748h.789l-.638.463.243.749-.638-.463-.638.463.244-.749-.639-.463h.79l.243-.748zM27.15 11.717l.244.75h.789l-.638.462.243.749-.638-.463-.638.463.244-.75-.639-.462h.79l.243-.749zM27.15 14.362l.244.75h.789l-.638.461.243.75-.638-.464-.638.463.244-.749-.639-.462h.79l.243-.749zM29.8 5.106l.244.748h.79l-.639.463.244.749-.638-.463-.639.463.244-.749-.638-.463h.788l.245-.748zM29.8 7.75l.244.749h.79l-.639.463.244.749-.638-.463-.639.463.244-.75-.638-.462h.788l.245-.749zM29.8 10.395l.244.748h.79l-.639.463.244.75-.638-.464-.639.464.244-.75-.638-.463h.788l.245-.748zM29.8 13.04l.244.748h.79l-.639.463.244.75-.638-.464-.639.463.244-.749-.638-.463h.788l.245-.748zM29.8 15.684l.244.75h.79l-.639.462.244.749-.638-.463-.639.463.244-.749-.638-.463h.788l.245-.749z"/></svg>