<svg width="16" height="16" fill="none" xmlns="http://www.w3.org/2000/svg"><path d="M8 0c3.316 0 6 2.745 6 6.125a6.754 6.754 0 0 1-.643 2.949c-.391.843-.954 1.688-1.893 2.891-.106.137-.384.484-.736.923l-.245.305-.26.324-1.83 2.291a.5.5 0 0 1-.787 0 195.52 195.52 0 0 0-1.2-1.507l-.364-.454-.854-1.064-.862-1.09c-.815-1.061-1.322-1.84-1.683-2.62A6.754 6.754 0 0 1 2 6.126C2 2.745 4.684 0 8 0Zm0 1C5.241 1 3 3.292 3 6.125c0 .93.174 1.717.55 2.528.352.76.878 1.549 1.774 2.697L8 14.693l2.276-2.84.6-.761c.776-1.011 1.249-1.738 1.574-2.439.376-.81.55-1.598.55-2.528C13 3.292 10.759 1 8 1Zm0 2a3 3 0 1 1 0 6 3 3 0 0 1 0-6Zm0 1a2 2 0 1 0 0 4 2 2 0 0 0 0-4Z" fill="#333"/></svg>