<svg width="16" height="16" fill="none" xmlns="http://www.w3.org/2000/svg"><rect width="16" height="16" rx="8" fill="#4BB4B3"/><path d="M6.882 9.5V7.415c.689-.027 1.205-.148 1.55-.361.344-.214.516-.575.516-1.083V5.78c0-.345-.098-.609-.294-.79-.196-.182-.451-.273-.765-.273-.34 0-.621.109-.843.327a1.665 1.665 0 0 0-.451.831L5 5.18c.078-.272.192-.538.34-.797.148-.259.342-.49.582-.695.24-.204.527-.37.862-.497A3.3 3.3 0 0 1 7.954 3c.453 0 .867.068 1.242.204.375.137.697.327.967.573.27.245.477.54.621.885.144.346.216.727.216 1.145 0 .382-.061.727-.183 1.036a2.593 2.593 0 0 1-1.229 1.376c-.279.145-.57.245-.876.3V9.5h-1.83ZM7.75 13c-.45 0-.77-.104-.962-.313a1.09 1.09 0 0 1-.288-.766v-.341c0-.303.096-.56.288-.768.192-.208.513-.312.962-.312.45 0 .77.104.962.313.192.208.288.463.288.766v.341c0 .303-.096.56-.288.768-.192.208-.513.312-.962.312Z" fill="#fff"/></svg>